<svg xmlns="http://www.w3.org/2000/svg" id="Lag_1" data-name="Lag 1" viewBox="111.37 56.29 328.84 160.43">
  <defs>
    <style>
      .cls-1 {
        fill: "currentColor";
      }
    </style>
  </defs>
  <path id="SDU_logo" data-name="SDU logo" class="cls-1" d="M440.19,109.15c-6.4,1.54-18.79,3.43-27.04,3.43-17.04,0-20.84-9.64-21.68-13.8-6.65-1.49-17.61-.71-22.89.49,5.2,1.13,8.28,5.12,9.21,12.48.62-.22,3.22-1.06,5.92-1.06,5.78,0,10.68,6.61,10.68,13.93,0,10.84-6.14,18.87-12.07,18.87-4.05,0-5.3-1.95-6.67-1.95s-2.47,2.01-6.35,2.01c-6.04,0-12.69-8.87-12.69-18.97,0-4.66,2.51-13.96,12.49-13.96,2.55,0,3.84.66,4.15.84-.17-5.1-3.86-9.68-10.51-9.68-5.65,0-19.39,5.41-29.32,13.74l-2.95-4.09c9.35-6.95,29.42-16.9,52.68-16.9,3.21,0,6.14.23,8.58.64,1.13-2.97,4.64-8.73,15.02-8.73,16.26,0,28.26,13.71,33.46,22.71ZM407.87,56.29c-30.14,6.51-41.73,22.26-41.73,33.92,31.49-3.77,27.64-23.35,41.73-33.92ZM317.42,67.8h-14.53v44.27c0,18.38-15.72,18.67-17.75,18.67s-17.75-.29-17.75-18.67v-44.27h-14.53v43.21c0,23.15,15.35,32.54,32.28,32.54s32.28-9.39,32.28-32.54v-43.21ZM241.03,105.14c0,2.84-.35,37.34-40.89,37.34h-23.67v-74.69h23.67c40.55,0,40.89,34.51,40.89,37.34ZM226.5,105.14c0-9.02-5.21-24.54-24.75-24.54h-10.76v49.08h10.76c19.54,0,24.75-15.52,24.75-24.54ZM111.37,132.34c7.74,7.04,17.1,11.21,27.22,11.21,13.56,0,25.51-9.18,25.51-22.4,0-25.17-34.76-21.45-34.76-33.51,0-5.75,6.14-8.1,11.62-8.1,4.95,0,10.01,2.13,13.02,4.91l7.54-10.67c-7.1-5.22-14.21-7.04-21.85-7.04-12.48,0-24.85,7.68-24.85,21.02,0,23.82,34.76,18.77,34.76,33.61,0,5.43-4.52,9.38-10.98,9.38-6.88,0-13.45-3.52-17.75-8.21l-9.46,9.81Z"/>
  <g>
    <path class="cls-1" d="M120.25,188.72c-1.04,0-2.01-.2-2.9-.59-.9-.39-1.66-.93-2.3-1.62-.54-.59-.97-1.29-1.28-2.09-.31-.8-.47-1.77-.47-2.9v-9.84h2.4v9.96c0,.8.09,1.46.28,1.98s.44.96.78,1.33c.42.46.92.83,1.52,1.09.6.26,1.26.4,1.98.4s1.38-.13,1.98-.4c.6-.26,1.11-.63,1.52-1.09.34-.37.6-.81.78-1.33.18-.52.28-1.18.28-1.98v-9.96h2.4v9.84c0,1.14-.16,2.1-.47,2.9-.31.8-.74,1.5-1.28,2.09-.64.69-1.41,1.23-2.3,1.62-.9.39-1.86.59-2.9.59Z"/>
    <path class="cls-1" d="M134.58,178.28c.3-.29.74-.58,1.31-.88.57-.3,1.26-.44,2.08-.44s1.6.18,2.32.54,1.31.84,1.79,1.45c.37.46.64,1,.83,1.62.18.62.28,1.41.28,2.39v5.52h-2.28v-5.64c0-.72-.06-1.27-.18-1.66-.12-.38-.28-.7-.49-.96-.27-.34-.61-.6-1.02-.8-.41-.2-.84-.3-1.31-.3-.75,0-1.4.16-1.93.49-.54.33-.97.7-1.31,1.12v7.75h-2.28v-11.28h2.21v1.08Z"/>
    <path class="cls-1" d="M147.85,173.19c0-.42.14-.77.43-1.07.29-.3.64-.44,1.06-.44s.77.15,1.07.44c.3.3.44.65.44,1.07s-.15.77-.44,1.06c-.3.29-.65.43-1.07.43s-.77-.14-1.06-.43-.43-.64-.43-1.06ZM148.21,177.2h2.28v11.28h-2.28v-11.28Z"/>
    <path class="cls-1" d="M153.97,177.2h2.35l3.34,7.68,3.34-7.68h2.35l-4.9,11.28h-1.58l-4.9-11.28Z"/>
    <path class="cls-1" d="M170.08,183.32c.03.48.15.92.35,1.33.2.41.46.77.78,1.08s.7.56,1.13.73c.43.18.9.26,1.39.26.83,0,1.5-.16,2-.49.5-.33.92-.68,1.24-1.04l1.49,1.42c-.42.54-1.02,1.03-1.82,1.46-.8.43-1.78.65-2.93.65-.82,0-1.58-.15-2.29-.44s-1.33-.7-1.86-1.22c-.53-.52-.94-1.14-1.24-1.86-.3-.72-.44-1.5-.44-2.35s.14-1.63.41-2.35c.27-.72.65-1.34,1.14-1.86.49-.52,1.07-.93,1.74-1.22.67-.3,1.41-.44,2.21-.44s1.51.15,2.17.44c.66.3,1.24.71,1.72,1.24.48.53.86,1.15,1.13,1.87.27.72.41,1.5.41,2.33v.19c0,.08,0,.18-.02.29h-8.69ZM173.44,178.95c-.74,0-1.4.22-1.99.67-.59.45-.98,1.04-1.18,1.78h6.14c-.08-.35-.22-.68-.42-.98-.2-.3-.43-.56-.7-.78-.26-.22-.56-.38-.88-.5-.32-.12-.65-.18-.98-.18Z"/>
    <path class="cls-1" d="M189.33,179.22c-.24-.06-.54-.1-.89-.1-.59,0-1.17.18-1.73.54-.56.36-1,.81-1.32,1.36v7.46h-2.28v-11.28h2.21v1.3c.27-.38.7-.74,1.27-1.06.58-.32,1.28-.48,2.11-.48.13,0,.28,0,.44.01s.32.03.44.06l-.26,2.18Z"/>
    <path class="cls-1" d="M193.65,185.48c1.07.83,2.18,1.25,3.34,1.25.5,0,.95-.12,1.36-.37s.61-.6.61-1.04c0-.32-.11-.58-.32-.77s-.49-.35-.83-.47c-.34-.12-.71-.23-1.13-.32s-.83-.22-1.25-.36c-.34-.11-.66-.25-.97-.42-.31-.17-.59-.37-.83-.61-.24-.24-.43-.51-.58-.82-.14-.3-.22-.66-.22-1.06,0-.61.12-1.13.37-1.57.25-.44.57-.8.96-1.09.39-.29.84-.5,1.33-.65.5-.14,1-.22,1.51-.22.83,0,1.55.12,2.16.35.61.23,1.14.53,1.58.9l-1.18,1.63c-.35-.27-.73-.49-1.13-.65-.4-.16-.83-.24-1.3-.24-.56,0-1.04.12-1.44.37-.4.25-.6.6-.6,1.04,0,.38.2.66.59.84.39.18.87.34,1.43.48.45.11.91.25,1.39.42.48.17.92.39,1.32.66.4.27.73.61,1,1.02.26.41.4.9.4,1.48,0,.53-.12,1.01-.35,1.44-.23.43-.54.8-.92,1.09-.38.3-.83.52-1.34.68-.51.16-1.04.24-1.58.24-1.76,0-3.28-.52-4.56-1.56l1.18-1.68Z"/>
    <path class="cls-1" d="M205.31,173.19c0-.42.14-.77.43-1.07.29-.3.64-.44,1.06-.44s.77.15,1.07.44c.3.3.44.65.44,1.07s-.15.77-.44,1.06c-.3.29-.65.43-1.07.43s-.77-.14-1.06-.43-.43-.64-.43-1.06ZM205.67,177.2h2.28v11.28h-2.28v-11.28Z"/>
    <path class="cls-1" d="M220.19,188.48c-.22.08-.5.14-.82.18-.32.04-.64.06-.96.06-.72,0-1.34-.12-1.86-.35-.52-.23-.96-.56-1.33-.97-.34-.37-.57-.81-.71-1.32-.14-.51-.2-1.07-.2-1.68v-5.16h-2.88v-2.04h2.88v-3.12h2.28v3.12h3.6v2.04h-3.6v5.28c0,.3.02.58.06.82.04.24.13.45.28.62.16.19.38.34.67.44.29.1.58.16.89.16.18,0,.38-.01.62-.04s.45-.06.62-.11l.46,2.06Z"/>
    <path class="cls-1" d="M224.96,194.24l3.05-6.94-4.82-10.1h2.45l3.53,7.44,3.24-7.44h2.4l-7.42,17.04h-2.42Z"/>
    <path class="cls-1" d="M244.88,182.84c0-.83.15-1.61.44-2.33.3-.72.7-1.34,1.22-1.87.52-.53,1.14-.94,1.85-1.24.71-.3,1.48-.44,2.32-.44s1.6.15,2.32.44c.71.3,1.33.71,1.85,1.24.52.53.93,1.15,1.22,1.87.3.72.44,1.5.44,2.33s-.15,1.63-.44,2.34-.7,1.33-1.22,1.86c-.52.53-1.14.94-1.85,1.24s-1.48.44-2.32.44-1.6-.15-2.32-.44-1.33-.71-1.85-1.24c-.52-.53-.93-1.15-1.22-1.86-.3-.71-.44-1.49-.44-2.34ZM247.17,182.84c0,.51.09,1,.26,1.45.18.46.42.85.73,1.19.31.34.68.6,1.12.79.43.19.91.29,1.44.29s1.01-.1,1.44-.29c.43-.19.8-.46,1.12-.79.31-.34.56-.73.73-1.19.18-.46.26-.94.26-1.45s-.09-1-.26-1.45c-.18-.46-.42-.85-.73-1.19-.31-.34-.68-.6-1.12-.79-.43-.19-.91-.29-1.44-.29s-1.01.1-1.44.29c-.43.19-.8.46-1.12.79-.31.34-.56.73-.73,1.19-.18.46-.26.94-.26,1.45Z"/>
    <path class="cls-1" d="M267.35,173.46c-.08-.03-.2-.06-.36-.07-.16-.02-.32-.02-.48-.02-.32,0-.64.07-.96.2-.32.14-.58.33-.77.59-.16.21-.27.47-.34.78-.06.31-.1.72-.1,1.24v1.03h3.48v2.04h-3.48v9.24h-2.28v-9.24h-2.64v-2.04h2.64v-.96c0-.77.06-1.4.17-1.88.11-.49.3-.92.55-1.28.42-.59.94-1.05,1.58-1.38.64-.33,1.34-.49,2.11-.49.24,0,.48.02.73.05.25.03.45.07.61.12l-.48,2.09Z"/>
    <path class="cls-1" d="M113.75,212.28c.5.61,1.09,1.12,1.78,1.54.69.42,1.46.62,2.33.62.38,0,.76-.06,1.12-.18.36-.12.67-.29.94-.52.26-.22.48-.49.64-.79.16-.3.24-.65.24-1.03,0-.64-.2-1.16-.59-1.55-.39-.39-.88-.73-1.46-1.02-.58-.29-1.21-.56-1.88-.82s-1.29-.57-1.85-.94c-.61-.4-1.12-.9-1.52-1.49-.41-.59-.61-1.33-.61-2.21,0-.61.13-1.18.38-1.73.26-.54.61-1.02,1.07-1.43.46-.41.99-.73,1.61-.96s1.29-.35,2.03-.35c.53,0,1.02.05,1.48.16s.87.24,1.25.41.71.35,1.01.54.56.38.78.58l-1.42,1.75c-.91-.77-1.91-1.15-3-1.15-.35,0-.69.05-1.02.14-.33.1-.62.24-.89.43-.26.19-.48.43-.64.71-.16.28-.24.6-.24.97,0,.53.2.97.59,1.32.39.35.88.67,1.46.95.58.28,1.21.56,1.87.83.66.27,1.27.58,1.81.94.29.19.56.41.82.65.25.24.49.52.7.83s.37.66.49,1.06.18.83.18,1.31c0,.74-.14,1.4-.41,2-.27.6-.64,1.11-1.1,1.54s-1.01.75-1.64.98c-.63.23-1.32.35-2.05.35-1.15,0-2.23-.24-3.24-.72-1.01-.48-1.89-1.18-2.64-2.09l1.66-1.63Z"/>
    <path class="cls-1" d="M126.42,210.84c0-.83.15-1.61.44-2.33.3-.72.7-1.34,1.22-1.87.52-.53,1.14-.94,1.85-1.24.71-.3,1.48-.44,2.32-.44s1.6.15,2.32.44c.71.3,1.33.71,1.85,1.24.52.53.93,1.15,1.22,1.87.3.72.44,1.5.44,2.33s-.15,1.63-.44,2.34-.7,1.33-1.22,1.86c-.52.53-1.14.94-1.85,1.24s-1.48.44-2.32.44-1.6-.15-2.32-.44-1.33-.71-1.85-1.24c-.52-.53-.93-1.15-1.22-1.86-.3-.71-.44-1.49-.44-2.34ZM128.7,210.84c0,.51.09,1,.26,1.45.18.46.42.85.73,1.19.31.34.68.6,1.12.79.43.19.91.29,1.44.29s1.01-.1,1.44-.29c.43-.19.8-.46,1.12-.79.31-.34.56-.73.73-1.19.18-.46.26-.94.26-1.45s-.09-1-.26-1.45c-.18-.46-.42-.85-.73-1.19-.31-.34-.68-.6-1.12-.79-.43-.19-.91-.29-1.44-.29s-1.01.1-1.44.29c-.43.19-.8.46-1.12.79-.31.34-.56.73-.73,1.19-.18.46-.26.94-.26,1.45Z"/>
    <path class="cls-1" d="M147.21,216.72c-.82,0-1.57-.17-2.27-.5-.7-.34-1.28-.8-1.74-1.39-.35-.43-.61-.94-.78-1.54s-.25-1.37-.25-2.33v-5.76h2.28v6.12c0,.58.06,1.04.17,1.38.11.34.27.64.48.88.26.3.58.54.96.72.38.18.79.26,1.22.26.7,0,1.33-.17,1.87-.52.54-.34.98-.71,1.3-1.09v-7.75h2.28v11.28h-2.21v-1.03c-.13.13-.3.26-.52.41s-.46.28-.74.41c-.28.13-.6.24-.95.32-.35.09-.72.13-1.1.13Z"/>
    <path class="cls-1" d="M164.97,216.48c-.22.08-.5.14-.82.18-.32.04-.64.06-.96.06-.72,0-1.34-.12-1.86-.35-.52-.23-.96-.56-1.33-.97-.34-.37-.57-.81-.71-1.32-.14-.51-.2-1.07-.2-1.68v-5.16h-2.88v-2.04h2.88v-3.12h2.28v3.12h3.6v2.04h-3.6v5.28c0,.3.02.58.06.82.04.24.13.45.28.62.16.19.38.34.67.44.29.1.58.16.89.16.18,0,.38-.01.62-.04s.45-.06.62-.11l.46,2.06Z"/>
    <path class="cls-1" d="M171.57,206.19c.32-.27.76-.54,1.31-.82s1.22-.41,2-.41c.83,0,1.6.18,2.32.54s1.31.84,1.79,1.45c.37.46.64,1,.83,1.62.18.62.28,1.41.28,2.39v5.52h-2.28v-5.64c0-.72-.06-1.27-.18-1.66-.12-.38-.28-.7-.49-.96-.27-.34-.61-.6-1.02-.8-.41-.2-.84-.3-1.31-.3-.75,0-1.4.16-1.93.49-.54.33-.97.7-1.31,1.12v7.75h-2.28v-17.04h2.28v6.74Z"/>
    <path class="cls-1" d="M186.37,211.32c.03.48.15.92.35,1.33.2.41.46.77.78,1.08s.7.56,1.13.73c.43.18.9.26,1.39.26.83,0,1.5-.16,2-.49.5-.33.92-.68,1.24-1.04l1.49,1.42c-.42.54-1.02,1.03-1.82,1.46-.8.43-1.78.65-2.93.65-.82,0-1.58-.15-2.29-.44s-1.33-.7-1.86-1.22c-.53-.52-.94-1.14-1.24-1.86-.3-.72-.44-1.5-.44-2.35s.14-1.63.41-2.35c.27-.72.65-1.34,1.14-1.86.49-.52,1.07-.93,1.74-1.22.67-.3,1.41-.44,2.21-.44s1.51.15,2.17.44c.66.3,1.24.71,1.72,1.24.48.53.86,1.15,1.13,1.87.27.72.41,1.5.41,2.33v.19c0,.08,0,.18-.02.29h-8.69ZM189.73,206.95c-.74,0-1.4.22-1.99.67-.59.45-.98,1.04-1.18,1.78h6.14c-.08-.35-.22-.68-.42-.98-.2-.3-.43-.56-.7-.78-.26-.22-.56-.38-.88-.5-.32-.12-.65-.18-.98-.18Z"/>
    <path class="cls-1" d="M205.62,207.22c-.24-.06-.54-.1-.89-.1-.59,0-1.17.18-1.73.54-.56.36-1,.81-1.32,1.36v7.46h-2.28v-11.28h2.21v1.3c.27-.38.7-.74,1.27-1.06.58-.32,1.28-.48,2.11-.48.13,0,.28,0,.44.01s.32.03.44.06l-.26,2.18Z"/>
    <path class="cls-1" d="M212.05,206.28c.3-.29.74-.58,1.31-.88.57-.3,1.26-.44,2.08-.44s1.6.18,2.32.54,1.31.84,1.79,1.45c.37.46.64,1,.83,1.62.18.62.28,1.41.28,2.39v5.52h-2.28v-5.64c0-.72-.06-1.27-.18-1.66-.12-.38-.28-.7-.49-.96-.27-.34-.61-.6-1.02-.8-.41-.2-.84-.3-1.31-.3-.75,0-1.4.16-1.93.49-.54.33-.97.7-1.31,1.12v7.75h-2.28v-11.28h2.21v1.08Z"/>
    <path class="cls-1" d="M233.49,216.48v-16.8h5.04c1.34,0,2.47.14,3.37.41.9.27,1.7.66,2.39,1.18,1.04.77,1.86,1.74,2.46,2.93.6,1.18.9,2.48.9,3.89s-.3,2.7-.89,3.89c-.59,1.18-1.41,2.16-2.45,2.93-.69.51-1.49.9-2.4,1.18-.91.27-2.04.41-3.38.41h-5.04ZM245.25,208.08c0-.94-.18-1.82-.54-2.64s-.86-1.5-1.5-2.06c-.53-.46-1.16-.82-1.91-1.06-.74-.24-1.71-.36-2.89-.36h-2.52v12.24h2.52c1.18,0,2.15-.12,2.89-.36.74-.24,1.38-.59,1.91-1.06.64-.56,1.14-1.25,1.5-2.06.36-.82.54-1.7.54-2.64Z"/>
    <path class="cls-1" d="M252.97,211.32c.03.48.15.92.35,1.33.2.41.46.77.78,1.08s.7.56,1.13.73c.43.18.9.26,1.39.26.83,0,1.5-.16,2-.49.5-.33.92-.68,1.24-1.04l1.49,1.42c-.42.54-1.02,1.03-1.82,1.46-.8.43-1.78.65-2.93.65-.82,0-1.58-.15-2.29-.44s-1.33-.7-1.86-1.22c-.53-.52-.94-1.14-1.24-1.86-.3-.72-.44-1.5-.44-2.35s.14-1.63.41-2.35c.27-.72.65-1.34,1.14-1.86.49-.52,1.07-.93,1.74-1.22.67-.3,1.41-.44,2.21-.44s1.51.15,2.17.44c.66.3,1.24.71,1.72,1.24.48.53.86,1.15,1.13,1.87.27.72.41,1.5.41,2.33v.19c0,.08,0,.18-.02.29h-8.69ZM256.33,206.95c-.74,0-1.4.22-1.99.67-.59.45-.98,1.04-1.18,1.78h6.14c-.08-.35-.22-.68-.42-.98-.2-.3-.43-.56-.7-.78-.26-.22-.56-.38-.88-.5-.32-.12-.65-.18-.98-.18Z"/>
    <path class="cls-1" d="M268.21,206.28c.3-.29.74-.58,1.31-.88.57-.3,1.26-.44,2.08-.44s1.6.18,2.32.54,1.31.84,1.79,1.45c.37.46.64,1,.83,1.62.18.62.28,1.41.28,2.39v5.52h-2.28v-5.64c0-.72-.06-1.27-.18-1.66-.12-.38-.28-.7-.49-.96-.27-.34-.61-.6-1.02-.8-.41-.2-.84-.3-1.31-.3-.75,0-1.4.16-1.93.49-.54.33-.97.7-1.31,1.12v7.75h-2.28v-11.28h2.21v1.08Z"/>
    <path class="cls-1" d="M284.05,205.2v1.08c.11-.13.28-.27.49-.42.22-.15.47-.3.76-.43.29-.14.61-.25.96-.34.35-.09.72-.13,1.1-.13.83,0,1.59.17,2.27.52.68.34,1.25.8,1.72,1.36.51-.51,1.1-.95,1.76-1.32s1.51-.55,2.53-.55c.82,0,1.57.17,2.27.5.7.34,1.28.8,1.74,1.39.35.43.61.94.78,1.54s.25,1.37.25,2.33v5.76h-2.28v-6.12c0-.58-.06-1.04-.17-1.38-.11-.34-.27-.64-.48-.88-.26-.3-.57-.54-.94-.72-.37-.18-.76-.26-1.18-.26-.82,0-1.5.17-2.05.52-.55.34-1.01.71-1.38,1.09.06.27.11.57.14.9.03.33.05.69.05,1.09v5.76h-2.28v-6.12c0-.58-.06-1.04-.17-1.38-.11-.34-.27-.64-.48-.88-.26-.3-.58-.54-.96-.72-.38-.18-.79-.26-1.22-.26-.7,0-1.33.17-1.87.52-.54.34-.98.71-1.3,1.09v7.75h-2.28v-11.28h2.21Z"/>
    <path class="cls-1" d="M313.96,215.45c-.46.42-.99.73-1.58.95-.59.22-1.22.32-1.9.32-.51,0-1.02-.07-1.51-.2-.5-.14-.94-.32-1.32-.54-.86-.51-1.56-1.21-2.09-2.1s-.79-1.9-.79-3.04.27-2.15.8-3.05,1.24-1.6,2.1-2.11c.38-.22.81-.4,1.27-.53.46-.13.96-.19,1.49-.19.64,0,1.26.1,1.86.3.6.2,1.16.52,1.67.97v-1.03h2.21v11.28h-2.21v-1.03ZM313.88,208.73c-.35-.46-.8-.85-1.36-1.15-.55-.3-1.17-.46-1.86-.46-.54,0-1.04.1-1.49.3-.45.2-.83.47-1.14.82-.31.34-.56.74-.73,1.19-.18.45-.26.92-.26,1.42s.09.99.28,1.44c.18.45.44.84.78,1.18s.73.6,1.19.8c.46.2.96.3,1.5.3.58,0,1.14-.14,1.69-.42s1.02-.68,1.4-1.19v-4.22Z"/>
    <path class="cls-1" d="M327.66,207.22c-.24-.06-.54-.1-.89-.1-.59,0-1.17.18-1.73.54-.56.36-1,.81-1.32,1.36v7.46h-2.28v-11.28h2.21v1.3c.27-.38.7-.74,1.27-1.06.58-.32,1.28-.48,2.11-.48.13,0,.28,0,.44.01s.32.03.44.06l-.26,2.18Z"/>
    <path class="cls-1" d="M342.8,216.48h-3.05l-5.59-5.52v5.52h-2.28v-17.04h2.28v10.08l4.7-4.32h3.22l-5.64,5.09,6.36,6.19Z"/>
  </g>
</svg>