<svg version="1.2" xmlns="http://www.w3.org/2000/svg" viewBox="0 0 1420 1563" width="1420" height="1563">
	<title>logo (14)-svg</title>
	<style>
		.s0 { fill: #16ab03 } 
		.s1 { fill: #5e33bf } 
		.s2 { fill: #000000 } 
	</style>
	<g id="Layer">
		<g id="Layer">
			<path id="Layer" class="s0" d="m1224.2 781.4c79.4 95.7 145.3 203 195 318.8-214.2 223.1-490.1 386.3-800.4 462.4-31.4-41.8-60.5-85.5-86.8-131.1-36.7-63.5-67.3-129.3-92.5-196.5 313.7-53 589.7-218.5 784.7-453.6z"/>
			<path id="Layer" class="s1" d="m1419.2 462.6c-49.7 115.9-115.6 223.1-195 318.8-195-235.1-471.1-400.6-784.9-453.6 43.8-118.4 104-228.5 178.6-327.8 310.6 76 586.9 239.4 801.3 462.6z"/>
			<path id="Layer" class="s2" d="m222.2 1253.1c-53 0-105.1-3.2-156.4-9.4-89.4-306.8-86.1-627.5 0.2-924.6 51.2-6.2 103.3-9.4 156.2-9.4 73.9 0 146.4 6.2 217.1 18.1-14.1 38.1-26.7 77-37.3 116.7-71 264.8-56.9 538.8 37.5 790.5-70.7 11.9-143.3 18.1-217.3 18.1z"/>
		</g>
	</g>
</svg>